# xmcd
#
# Track frame offsets: 
#        172
#        7257
#        21017
#        31210
#        41765
#        50990
#        57995
#        72470
#        88392
#        108472
#        116912
#        125937
#        136457
#        155597
#        171277
#        184465
#        189952
#        209730
#        216555
#        228455
#
# Disc length: 3266 seconds
#
# Revision: 1
# Processed by: cddbd v1.5.2PL0 Copyright (c) Steve Scherf et al.
# Submitted via: ExactAudioCopy v1.3
#
DISCID=4a0cc014
DTITLE=Yann Tiersen - Le Fabuleux Destin d'Amélie Poulain
DYEAR=2001
DGENRE=Soundtrack
TTITLE0=J'y suis jamais allé
TTITLE1=Les jours tristes (instrumental)
TTITLE2=La Valse d'Amélie
TTITLE3=Comptine d'un autre été: L'après midi
TTITLE4=La noyée
TTITLE5=L'autre valse d'Amélie
TTITLE6=Al Bowlly - Guilty
TTITLE7=A quai
TTITLE8=Le moulin
TTITLE9=Pas si simple
TTITLE10=La valse d'Amélie (version orchestre)
TTITLE11=La valse des vieux os
TTITLE12=La dispute
TTITLE13=Fréhel - Si tu n'étais pas là
TTITLE14=Soir de fête
TTITLE15=La redécouverte
TTITLE16=Sur le fil
TTITLE17=Le banquet
TTITLE18=La valse d'Amélie (version piano)
TTITLE19=La valse des monstres
EXTD=
EXTT0=
EXTT1=
EXTT2=
EXTT3=
EXTT4=
EXTT5=
EXTT6=
EXTT7=
EXTT8=
EXTT9=
EXTT10=
EXTT11=
EXTT12=
EXTT13=
EXTT14=
EXTT15=
EXTT16=
EXTT17=
EXTT18=
EXTT19=
PLAYORDER=
